<?xml version="1.0" standalone="no"?>
<!DOCTYPE svg PUBLIC "-//W3C//DTD SVG 20010904//EN"
 "http://www.w3.org/TR/2001/REC-SVG-20010904/DTD/svg10.dtd">
<svg version="1.0" xmlns="http://www.w3.org/2000/svg"
 width="841.000000pt" height="412.000000pt" viewBox="0 0 841.000000 412.000000"
 preserveAspectRatio="xMidYMid meet">

<g transform="translate(0.000000,412.000000) scale(0.100000,-0.100000)"
fill="#000000" stroke="none">
<path d="M1940 4059 c-578 -60 -1121 -387 -1451 -876 -27 -40 -49 -75 -49 -78
0 -3 152 -5 338 -5 383 0 436 -7 597 -77 122 -53 191 -100 279 -193 55 -59 85
-103 119 -172 66 -135 78 -188 84 -375 6 -197 -8 -276 -73 -408 -105 -214
-287 -358 -544 -432 l-95 -27 -438 -4 c-256 -2 -437 -7 -437 -12 0 -49 140
-330 227 -455 208 -297 460 -515 778 -671 903 -441 1991 -143 2547 700 64 98
170 302 189 366 11 36 16 40 44 40 52 0 116 40 142 90 39 74 25 140 -41 198
l-38 33 11 82 c107 776 -233 1530 -884 1960 -374 246 -851 362 -1305 316z
m1290 -1159 c48 -124 140 -362 205 -530 65 -168 153 -395 195 -505 108 -279
120 -300 197 -339 53 -26 63 -22 63 28 0 48 27 96 72 129 29 22 131 36 141 20
9 -15 -56 -274 -80 -315 -2 -4 -20 -1 -40 7 -29 12 -98 15 -384 15 l-349 0 0
40 c0 44 -8 39 109 59 81 13 106 35 97 83 -4 18 -37 114 -74 213 l-67 180
-297 3 -296 2 -30 -77 c-72 -188 -101 -308 -82 -343 16 -29 83 -58 156 -66 72
-8 84 -17 84 -60 l0 -34 -319 0 c-261 0 -325 -3 -354 -15 -51 -21 -95 -19
-147 8 -116 58 -118 217 -4 283 108 63 244 -14 244 -137 0 -41 0 -41 31 -35
49 9 122 70 151 123 14 26 88 206 164 398 153 390 400 1025 416 1068 10 26 13
28 61 25 l51 -3 86 -225z"/>
<path d="M2928 2527 c-42 -111 -95 -249 -117 -307 -23 -58 -41 -108 -41 -112
0 -5 111 -8 246 -8 l246 0 -6 25 c-3 13 -49 134 -101 267 -134 341 -130 331
-140 335 -6 2 -45 -88 -87 -200z"/>
<path d="M4400 3245 c-107 -7 -196 -13 -197 -14 -2 0 -3 -18 -3 -39 l0 -39 68
-12 c82 -15 125 -38 149 -83 17 -31 18 -82 21 -756 2 -633 1 -726 -13 -752
-19 -37 -40 -48 -107 -58 -52 -7 -53 -8 -56 -44 l-3 -37 269 -3 c148 -2 396
-2 551 0 l281 3 0 35 c0 19 -6 37 -12 39 -7 2 -33 9 -57 15 -24 7 -57 24 -73
40 l-28 28 0 835 c0 658 -3 837 -13 845 -11 10 -340 -1 -425 -14 -31 -5 -33
-7 -30 -42 l3 -36 72 -17 c90 -20 120 -39 144 -94 19 -42 19 -72 17 -770 l-3
-727 -27 -23 c-55 -47 -174 -41 -230 13 l-28 26 0 829 c0 552 -3 835 -10 848
-7 12 -20 18 -38 18 -15 -1 -115 -8 -222 -14z"/>
<path d="M785 3001 l-60 -6 0 -685 c0 -665 1 -686 20 -718 33 -55 92 -76 220
-80 80 -3 129 1 175 13 209 54 347 211 401 455 29 130 31 369 5 485 -90 383
-361 575 -761 536z"/>
<path d="M332 2902 c-143 -309 -206 -681 -172 -1023 15 -147 58 -359 79 -381
11 -12 151 11 176 29 50 37 50 33 50 723 0 598 -1 647 -18 677 -9 18 -30 39
-46 47 l-28 15 -41 -87z"/>
<path d="M5743 2606 c-266 -65 -443 -354 -413 -677 11 -115 26 -170 70 -264
43 -91 101 -157 180 -207 77 -49 126 -66 222 -78 219 -27 396 49 525 224 24
32 43 65 43 72 0 13 -55 54 -72 54 -4 0 -28 -30 -54 -66 -84 -118 -168 -160
-308 -152 -100 6 -163 32 -230 96 -79 77 -136 232 -136 373 l0 49 390 0 390 0
0 69 c0 211 -79 377 -218 458 -99 58 -265 79 -389 49z m166 -86 c70 -13 115
-50 151 -124 36 -74 60 -227 40 -251 -11 -13 -52 -15 -269 -13 l-256 3 -3 31
c-4 39 23 144 49 196 25 50 84 115 120 134 23 11 75 27 110 33 4 1 30 -3 58
-9z"/>
<path d="M6995 2606 c-74 -24 -146 -67 -203 -122 -31 -30 -57 -54 -59 -54 -1
0 -3 37 -5 83 l-3 82 -120 -3 c-66 -2 -156 -7 -200 -10 l-80 -7 -3 -42 c-3
-41 -2 -43 25 -43 46 0 114 -41 135 -80 17 -32 18 -67 18 -446 l0 -411 -24
-26 c-16 -18 -38 -27 -72 -32 -72 -10 -74 -11 -74 -50 l0 -35 316 0 315 0 -3
37 -3 37 -76 12 c-84 13 -120 31 -137 70 -9 17 -12 135 -12 387 l0 361 63 62
c43 42 80 67 118 82 29 11 58 18 62 15 4 -3 5 -24 2 -48 -8 -49 10 -91 51
-124 56 -44 170 -20 189 39 4 11 10 20 14 20 8 0 98 -211 246 -575 40 -99 91
-223 113 -276 l39 -97 -26 -59 c-50 -111 -126 -236 -178 -291 l-52 -55 -45 60
c-56 76 -113 103 -177 84 -53 -16 -79 -58 -79 -130 0 -48 3 -57 38 -91 63 -63
182 -75 276 -28 52 26 129 107 184 192 48 74 154 290 220 451 79 192 172 416
238 573 37 86 77 182 89 212 32 76 79 128 142 157 52 24 54 26 51 61 l-3 37
-215 0 -215 0 0 -40 c0 -36 3 -40 30 -45 48 -10 113 -48 120 -69 3 -11 3 -32
-1 -48 -17 -70 -262 -663 -275 -663 -4 0 -11 10 -15 23 -7 23 -55 142 -151
372 -101 242 -135 337 -123 349 6 6 37 18 68 26 l57 15 0 40 0 40 -220 5
c-132 4 -234 11 -255 18 -43 15 -63 14 -115 -2z"/>
</g>
</svg>
